<svg width="915" height="287" viewBox="0 0 915 287" fill="none" xmlns="http://www.w3.org/2000/svg">
<path d="M793.026 116.239L739.485 89.4687V155.043L793.026 181.813V116.239Z" fill="#D04A4A"/>
<path d="M685.943 116.239L739.485 89.4687V155.043L685.943 181.813V116.239Z" fill="#CC2255"/>
<path d="M739.485 155.043L793.026 181.813L739.485 208.583L685.943 181.813L739.485 155.043Z" fill="#663366"/>
<path d="M685.943 116.239L739.485 143.009L793.026 116.239L739.485 89.4687L685.943 116.239Z" fill="#ED5454"/>
<path d="M793.026 116.239L739.485 143.009V208.583L793.026 181.813V116.239Z" fill="#A93B3B"/>
<path d="M685.943 116.239L739.485 143.009V208.583L685.943 181.813V116.239Z" fill="#D04A4A"/>
<path d="M851.969 146.447L798.428 119.677V185.251L851.969 212.021V146.447Z" fill="#D04A4A"/>
<path d="M744.887 146.447L798.428 119.677V185.251L744.887 212.021V146.447Z" fill="#CC2255"/>
<path d="M798.428 185.251L851.969 212.021L798.428 238.792L744.887 212.021L798.428 185.251Z" fill="#663366"/>
<path d="M744.887 146.447L798.428 173.218L851.969 146.447L798.428 119.677L744.887 146.447Z" fill="#ED5454"/>
<path d="M851.969 146.447L798.428 173.218V238.792L851.969 212.021V146.447Z" fill="#A93B3B"/>
<path d="M744.887 146.447L798.428 173.218V238.792L744.887 212.021V146.447Z" fill="#D04A4A"/>
<path d="M734.083 146.447L680.541 119.677V185.251L734.083 212.021V146.447Z" fill="#D04A4A"/>
<path d="M627 146.447L680.541 119.677V185.251L627 212.021V146.447Z" fill="#CC2255"/>
<path d="M680.541 185.251L734.083 212.021L680.541 238.792L627 212.021L680.541 185.251Z" fill="#663366"/>
<path d="M627 146.447L680.541 173.218L734.083 146.447L680.541 119.677L627 146.447Z" fill="#ED5454"/>
<path d="M734.083 146.447L680.541 173.218V238.792L734.083 212.021V146.447Z" fill="#A93B3B"/>
<path d="M627 146.447L680.541 173.218V238.792L627 212.021V146.447Z" fill="#D04A4A"/>
<path d="M793.026 176.656L739.485 149.885V215.46L793.026 242.23V176.656Z" fill="#D04A4A"/>
<path d="M685.943 176.656L739.485 149.885V215.46L685.943 242.23V176.656Z" fill="#CC2255"/>
<path d="M739.485 215.459L793.026 242.23L739.485 269L685.943 242.23L739.485 215.459Z" fill="#663366"/>
<path d="M685.943 176.656L739.485 203.426L793.026 176.656L739.485 149.885L685.943 176.656Z" fill="#ED5454"/>
<path d="M793.026 176.656L739.485 203.426V269L793.026 242.23V176.656Z" fill="#A93B3B"/>
<path d="M685.943 176.656L739.485 203.426V269L685.943 242.23V176.656Z" fill="#D04A4A"/>
<path d="M793.026 44.7702L739.485 18V83.574L793.026 110.344V44.7702Z" fill="#D04A4A"/>
<path d="M685.943 44.7702L739.485 18V83.574L685.943 110.344V44.7702Z" fill="#CC2255"/>
<path d="M739.485 83.574L793.026 110.344L739.485 137.115L685.943 110.344L739.485 83.574Z" fill="#663366"/>
<path d="M685.943 44.7702L739.485 71.5405L793.026 44.7702L739.485 18L685.943 44.7702Z" fill="#ED5454"/>
<path d="M793.026 44.7703L739.485 71.5405V137.115L793.026 110.344V44.7703Z" fill="#A93B3B"/>
<path d="M685.943 44.7703L739.485 71.5405V137.115L685.943 110.344V44.7703Z" fill="#D04A4A"/>
<path d="M851.969 74.9787L798.428 48.2084V113.782L851.969 140.553V74.9787Z" fill="#D04A4A"/>
<path d="M744.887 74.9787L798.428 48.2084V113.782L744.887 140.553V74.9787Z" fill="#CC2255"/>
<path d="M798.428 113.782L851.969 140.553L798.428 167.323L744.887 140.553L798.428 113.782Z" fill="#663366"/>
<path d="M744.887 74.9787L798.428 101.749L851.969 74.9787L798.428 48.2084L744.887 74.9787Z" fill="#ED5454"/>
<path d="M851.969 74.9787L798.428 101.749V167.323L851.969 140.553V74.9787Z" fill="#A93B3B"/>
<path d="M744.887 74.9787L798.428 101.749V167.323L744.887 140.553V74.9787Z" fill="#D04A4A"/>
<path d="M734.083 74.9787L680.541 48.2084V113.782L734.083 140.553V74.9787Z" fill="#D04A4A"/>
<path d="M627 74.9787L680.541 48.2084V113.782L627 140.553V74.9787Z" fill="#CC2255"/>
<path d="M680.541 113.782L734.083 140.553L680.541 167.323L627 140.553L680.541 113.782Z" fill="#663366"/>
<path d="M627 74.9787L680.541 101.749L734.083 74.9787L680.541 48.2084L627 74.9787Z" fill="#ED5454"/>
<path d="M734.083 74.9787L680.541 101.749V167.323L734.083 140.553V74.9787Z" fill="#A93B3B"/>
<path d="M627 74.9787L680.541 101.749V167.323L627 140.553V74.9787Z" fill="#D04A4A"/>
<path d="M793.026 105.187L739.485 78.4168V143.991L793.026 170.761V105.187Z" fill="#D04A4A"/>
<path d="M685.943 105.187L739.485 78.4168V143.991L685.943 170.761V105.187Z" fill="#CC2255"/>
<path d="M739.485 143.991L793.026 170.761L739.485 197.531L685.943 170.761L739.485 143.991Z" fill="#663366"/>
<path d="M685.943 105.187L739.485 131.957L793.026 105.187L739.485 78.4168L685.943 105.187Z" fill="#ED5454"/>
<path d="M793.026 105.187L739.485 131.957V197.531L793.026 170.761V105.187Z" fill="#A93B3B"/>
<path d="M685.943 105.187L739.485 131.957V197.531L685.943 170.761V105.187Z" fill="#D04A4A"/>
<path d="M150 218.4C147.8 219.8 145.7 220.233 143.7 219.7C141.7 219.167 140 217.8 138.6 215.6L107.6 164H79.6V209.6C79.6 215.2 76.8 218 71.2 218C65.6 218 62.8 215.2 62.8 209.6V90.8C62.8 85.2 65.6 82.4 71.2 82.4H118C130.2 82.4 139.533 85.6667 146 92.2C152.533 98.6667 155.8 108 155.8 120.2V126.2C155.8 136.8 153.333 145.267 148.4 151.6C143.467 157.867 136.333 161.767 127 163.3L153.2 207C155.733 211.667 154.667 215.467 150 218.4ZM79.6 147.2H118C125.6 147.2 131 145.6 134.2 142.4C137.4 139.2 139 133.8 139 126.2V120.2C139 112.667 137.4 107.3 134.2 104.1C131 100.833 125.6 99.2 118 99.2H79.6V147.2ZM227.8 218C212.533 218 201.233 214.367 193.9 207.1C186.633 199.767 183 188.467 183 173.2V127C183 111.6 186.667 100.3 194 93.1C201.333 85.8333 212.6 82.2667 227.8 82.4H251.8C267.133 82.4 278.433 86.0333 285.7 93.3C292.967 100.567 296.6 111.867 296.6 127.2V173.2C296.6 188.467 292.967 199.767 285.7 207.1C278.433 214.367 267.133 218 251.8 218H227.8ZM227.8 201.2H251.8C258.933 201.2 264.533 200.367 268.6 198.7C272.667 196.967 275.533 194.067 277.2 190C278.933 185.933 279.8 180.333 279.8 173.2V127.2C279.8 120.133 278.933 114.567 277.2 110.5C275.533 106.433 272.667 103.533 268.6 101.8C264.533 100.067 258.933 99.2 251.8 99.2H227.8C220.733 99.1333 215.167 99.9333 211.1 101.6C207.033 103.267 204.133 106.133 202.4 110.2C200.667 114.267 199.8 119.867 199.8 127V173.2C199.8 180.333 200.633 185.933 202.3 190C204.033 194.067 206.933 196.967 211 198.7C215.067 200.367 220.667 201.2 227.8 201.2ZM357.755 218C345.288 218 335.721 215.433 329.055 210.3C322.455 205.1 318.555 197 317.355 186C317.088 183.2 317.688 181.033 319.155 179.5C320.621 177.967 322.755 177.2 325.555 177.2C330.688 177.2 333.555 180 334.155 185.6C334.955 191.667 337.121 195.8 340.655 198C344.188 200.133 349.888 201.2 357.755 201.2H374.355C380.555 201.2 385.388 200.5 388.855 199.1C392.388 197.7 394.855 195.267 396.255 191.8C397.655 188.333 398.355 183.467 398.355 177.2V90.8C398.355 85.2 401.155 82.4 406.755 82.4C412.355 82.4 415.155 85.2 415.155 90.8V177.2C415.155 191.267 411.855 201.6 405.255 208.2C398.655 214.733 388.355 218 374.355 218H357.755ZM495.769 218C480.502 218 469.202 214.367 461.869 207.1C454.602 199.767 450.969 188.467 450.969 173.2V127C450.969 111.6 454.635 100.3 461.969 93.1C469.302 85.8333 480.569 82.2667 495.769 82.4H519.769C535.102 82.4 546.402 86.0333 553.669 93.3C560.935 100.567 564.569 111.867 564.569 127.2V173.2C564.569 188.467 560.935 199.767 553.669 207.1C546.402 214.367 535.102 218 519.769 218H495.769ZM495.769 201.2H519.769C526.902 201.2 532.502 200.367 536.569 198.7C540.635 196.967 543.502 194.067 545.169 190C546.902 185.933 547.769 180.333 547.769 173.2V127.2C547.769 120.133 546.902 114.567 545.169 110.5C543.502 106.433 540.635 103.533 536.569 101.8C532.502 100.067 526.902 99.2 519.769 99.2H495.769C488.702 99.1333 483.135 99.9333 479.069 101.6C475.002 103.267 472.102 106.133 470.369 110.2C468.635 114.267 467.769 119.867 467.769 127V173.2C467.769 180.333 468.602 185.933 470.269 190C472.002 194.067 474.902 196.967 478.969 198.7C483.035 200.367 488.635 201.2 495.769 201.2Z" fill="#F5F5F5"/>
</svg>
