<svg width="1327" height="287" viewBox="0 0 1327 287" fill="none" xmlns="http://www.w3.org/2000/svg">
<path d="M1222.03 116.239L1168.48 89.4687V155.043L1222.03 181.813V116.239Z" fill="#EEAA00"/>
<path d="M1114.94 116.239L1168.48 89.4687V155.043L1114.94 181.813V116.239Z" fill="#CC2255"/>
<path d="M1168.48 155.043L1222.03 181.813L1168.48 208.583L1114.94 181.813L1168.48 155.043Z" fill="#663366"/>
<path d="M1114.94 116.239L1168.48 143.009L1222.03 116.239L1168.48 89.4687L1114.94 116.239Z" fill="#FFC229"/>
<path d="M1222.03 116.239L1168.48 143.009V208.583L1222.03 181.813V116.239Z" fill="#CB9100"/>
<path d="M1114.94 116.239L1168.48 143.009V208.583L1114.94 181.813V116.239Z" fill="#EEAA00"/>
<path d="M1280.97 146.447L1227.43 119.677V185.251L1280.97 212.021V146.447Z" fill="#EEAA00"/>
<path d="M1173.89 146.447L1227.43 119.677V185.251L1173.89 212.021V146.447Z" fill="#CC2255"/>
<path d="M1227.43 185.251L1280.97 212.021L1227.43 238.792L1173.89 212.021L1227.43 185.251Z" fill="#663366"/>
<path d="M1173.89 146.447L1227.43 173.218L1280.97 146.447L1227.43 119.677L1173.89 146.447Z" fill="#FFC229"/>
<path d="M1280.97 146.447L1227.43 173.218V238.792L1280.97 212.021V146.447Z" fill="#CB9100"/>
<path d="M1173.89 146.447L1227.43 173.218V238.792L1173.89 212.021V146.447Z" fill="#EEAA00"/>
<path d="M1163.08 146.447L1109.54 119.677V185.251L1163.08 212.021V146.447Z" fill="#EEAA00"/>
<path d="M1056 146.447L1109.54 119.677V185.251L1056 212.021V146.447Z" fill="#CC2255"/>
<path d="M1109.54 185.251L1163.08 212.021L1109.54 238.792L1056 212.021L1109.54 185.251Z" fill="#663366"/>
<path d="M1056 146.447L1109.54 173.218L1163.08 146.447L1109.54 119.677L1056 146.447Z" fill="#FFC229"/>
<path d="M1163.08 146.447L1109.54 173.218V238.792L1163.08 212.021V146.447Z" fill="#CB9100"/>
<path d="M1056 146.447L1109.54 173.218V238.792L1056 212.021V146.447Z" fill="#EEAA00"/>
<path d="M1222.03 176.656L1168.48 149.885V215.46L1222.03 242.23V176.656Z" fill="#EEAA00"/>
<path d="M1114.94 176.656L1168.48 149.885V215.46L1114.94 242.23V176.656Z" fill="#CC2255"/>
<path d="M1168.48 215.459L1222.03 242.23L1168.48 269L1114.94 242.23L1168.48 215.459Z" fill="#663366"/>
<path d="M1114.94 176.656L1168.48 203.426L1222.03 176.656L1168.48 149.885L1114.94 176.656Z" fill="#FFC229"/>
<path d="M1222.03 176.656L1168.48 203.426V269L1222.03 242.23V176.656Z" fill="#CB9100"/>
<path d="M1114.94 176.656L1168.48 203.426V269L1114.94 242.23V176.656Z" fill="#EEAA00"/>
<path d="M1222.03 44.7702L1168.48 18V83.574L1222.03 110.344V44.7702Z" fill="#EEAA00"/>
<path d="M1114.94 44.7702L1168.48 18V83.574L1114.94 110.344V44.7702Z" fill="#CC2255"/>
<path d="M1168.48 83.574L1222.03 110.344L1168.48 137.115L1114.94 110.344L1168.48 83.574Z" fill="#663366"/>
<path d="M1114.94 44.7702L1168.48 71.5405L1222.03 44.7702L1168.48 18L1114.94 44.7702Z" fill="#FFC229"/>
<path d="M1222.03 44.7702L1168.48 71.5405V137.114L1222.03 110.344V44.7702Z" fill="#CB9100"/>
<path d="M1114.94 44.7702L1168.48 71.5405V137.114L1114.94 110.344V44.7702Z" fill="#EEAA00"/>
<path d="M1280.97 74.9786L1227.43 48.2084V113.782L1280.97 140.553V74.9786Z" fill="#EEAA00"/>
<path d="M1173.89 74.9786L1227.43 48.2084V113.782L1173.89 140.553V74.9786Z" fill="#CC2255"/>
<path d="M1227.43 113.782L1280.97 140.553L1227.43 167.323L1173.89 140.553L1227.43 113.782Z" fill="#663366"/>
<path d="M1173.89 74.9786L1227.43 101.749L1280.97 74.9786L1227.43 48.2084L1173.89 74.9786Z" fill="#FFC229"/>
<path d="M1280.97 74.9787L1227.43 101.749V167.323L1280.97 140.553V74.9787Z" fill="#CB9100"/>
<path d="M1173.89 74.9787L1227.43 101.749V167.323L1173.89 140.553V74.9787Z" fill="#EEAA00"/>
<path d="M1163.08 74.9786L1109.54 48.2084V113.782L1163.08 140.553V74.9786Z" fill="#EEAA00"/>
<path d="M1056 74.9786L1109.54 48.2084V113.782L1056 140.553V74.9786Z" fill="#CC2255"/>
<path d="M1109.54 113.782L1163.08 140.553L1109.54 167.323L1056 140.553L1109.54 113.782Z" fill="#663366"/>
<path d="M1056 74.9786L1109.54 101.749L1163.08 74.9786L1109.54 48.2084L1056 74.9786Z" fill="#FFC229"/>
<path d="M1163.08 74.9787L1109.54 101.749V167.323L1163.08 140.553V74.9787Z" fill="#CB9100"/>
<path d="M1056 74.9787L1109.54 101.749V167.323L1056 140.553V74.9787Z" fill="#EEAA00"/>
<path d="M1222.03 105.187L1168.48 78.4168V143.991L1222.03 170.761V105.187Z" fill="#EEAA00"/>
<path d="M1114.94 105.187L1168.48 78.4168V143.991L1114.94 170.761V105.187Z" fill="#CC2255"/>
<path d="M1168.48 143.991L1222.03 170.761L1168.48 197.531L1114.94 170.761L1168.48 143.991Z" fill="#663366"/>
<path d="M1114.94 105.187L1168.48 131.957L1222.03 105.187L1168.48 78.4168L1114.94 105.187Z" fill="#FFC229"/>
<path d="M1222.03 105.187L1168.48 131.957V197.531L1222.03 170.761V105.187Z" fill="#CB9100"/>
<path d="M1114.94 105.187L1168.48 131.957V197.531L1114.94 170.761V105.187Z" fill="#EEAA00"/>
<path d="M56.4 217.2C51.0667 215.133 49.4667 211.467 51.6 206.2L99.2 89C101.2 84.6 104.333 82.4 108.6 82.4H109C113.333 82.6 116.267 84.8 117.8 89L166.2 206.2C168.333 211.467 166.8 215.133 161.6 217.2C156.333 219.267 152.667 217.733 150.6 212.6L139.8 186.4H77.5L67.2 212.6C65.1333 217.8 61.5333 219.333 56.4 217.2ZM84.1 169.6H132.9L108 109L84.1 169.6ZM204.403 218C198.803 218 196.003 215.2 196.003 209.6V90.8C196.003 85.2 198.803 82.4 204.403 82.4C208.07 82.4 211.136 84.2 213.603 87.8L260.803 158.8L257.203 159.4L304.803 87.8C307.07 84.2 310.47 82.4 315.003 82.4C319.536 82.4 321.803 85.2 321.803 90.8V209.6C321.803 215.2 319.003 218 313.403 218C307.803 218 305.003 215.2 305.003 209.6V107.6L310.203 109.4L268.203 171.2C265.736 174.8 262.336 176.6 258.003 176.6C255.003 176.6 252.27 174.8 249.803 171.2L207.803 109.4L212.803 110.8V209.6C212.803 215.2 210.003 218 204.403 218ZM356.986 217.2C351.653 215.133 350.053 211.467 352.186 206.2L399.786 89C401.786 84.6 404.919 82.4 409.186 82.4H409.586C413.919 82.6 416.853 84.8 418.386 89L466.786 206.2C468.919 211.467 467.386 215.133 462.186 217.2C456.919 219.267 453.253 217.733 451.186 212.6L440.386 186.4H378.086L367.786 212.6C365.719 217.8 362.119 219.333 356.986 217.2ZM384.686 169.6H433.486L408.586 109L384.686 169.6ZM583.789 218.4C581.589 219.8 579.489 220.233 577.489 219.7C575.489 219.167 573.789 217.8 572.389 215.6L541.389 164H513.389V209.6C513.389 215.2 510.589 218 504.989 218C499.389 218 496.589 215.2 496.589 209.6V90.8C496.589 85.2 499.389 82.4 504.989 82.4H551.789C563.989 82.4 573.322 85.6667 579.789 92.2C586.322 98.6667 589.589 108 589.589 120.2V126.2C589.589 136.8 587.122 145.267 582.189 151.6C577.256 157.867 570.122 161.767 560.789 163.3L586.989 207C589.522 211.667 588.456 215.467 583.789 218.4ZM513.389 147.2H551.789C559.389 147.2 564.789 145.6 567.989 142.4C571.189 139.2 572.789 133.8 572.789 126.2V120.2C572.789 112.667 571.189 107.3 567.989 104.1C564.789 100.833 559.389 99.2 551.789 99.2H513.389V147.2ZM629.989 218C627.122 218 624.989 217.333 623.589 216C622.256 214.6 621.589 212.467 621.589 209.6V91C621.589 88.0667 622.256 85.9333 623.589 84.6C624.989 83.2667 627.122 82.6 629.989 82.6C632.922 82.6 635.056 83.2667 636.389 84.6C637.722 85.9333 638.389 88.0667 638.389 91V209.6C638.389 212.467 637.722 214.6 636.389 216C635.056 217.333 632.922 218 629.989 218ZM688.388 218C682.788 218 679.988 215.2 679.988 209.6V90.8C679.988 85.2 682.788 82.4 688.388 82.4C693.988 82.4 696.788 85.2 696.788 90.8V201.2H752.188C757.788 201.2 760.588 204 760.588 209.6C760.588 215.2 757.788 218 752.188 218H688.388ZM796.591 218C790.991 218 788.191 215.2 788.191 209.6V90.8C788.191 85.2 790.991 82.4 796.591 82.4C802.191 82.4 804.991 85.2 804.991 90.8V201.2H860.391C865.991 201.2 868.791 204 868.791 209.6C868.791 215.2 865.991 218 860.391 218H796.591ZM932.488 218C917.221 218 905.921 214.367 898.588 207.1C891.321 199.767 887.688 188.467 887.688 173.2V127C887.688 111.6 891.354 100.3 898.688 93.1C906.021 85.8333 917.288 82.2667 932.488 82.4H956.488C971.821 82.4 983.121 86.0333 990.388 93.3C997.654 100.567 1001.29 111.867 1001.29 127.2V173.2C1001.29 188.467 997.654 199.767 990.388 207.1C983.121 214.367 971.821 218 956.488 218H932.488ZM932.488 201.2H956.488C963.621 201.2 969.221 200.367 973.288 198.7C977.354 196.967 980.221 194.067 981.887 190C983.621 185.933 984.488 180.333 984.488 173.2V127.2C984.488 120.133 983.621 114.567 981.887 110.5C980.221 106.433 977.354 103.533 973.288 101.8C969.221 100.067 963.621 99.2 956.488 99.2H932.488C925.421 99.1333 919.854 99.9333 915.788 101.6C911.721 103.267 908.821 106.133 907.088 110.2C905.354 114.267 904.488 119.867 904.488 127V173.2C904.488 180.333 905.321 185.933 906.988 190C908.721 194.067 911.621 196.967 915.688 198.7C919.754 200.367 925.354 201.2 932.488 201.2Z" fill="white"/>
</svg>
