<svg width="915" height="287" viewBox="0 0 915 287" fill="none" xmlns="http://www.w3.org/2000/svg">
<path d="M793.026 116.239L739.485 89.4686V155.043L793.026 181.813V116.239Z" fill="#2D7CC5"/>
<path d="M685.943 116.239L739.485 89.4686V155.043L685.943 181.813V116.239Z" fill="#CC2255"/>
<path d="M739.485 155.043L793.026 181.813L739.485 208.583L685.943 181.813L739.485 155.043Z" fill="#663366"/>
<path d="M685.943 116.239L739.485 143.009L793.026 116.239L739.485 89.4686L685.943 116.239Z" fill="#3795EB"/>
<path d="M793.026 116.239L739.485 143.009V208.583L793.026 181.813V116.239Z" fill="#1B64A7"/>
<path d="M685.943 116.239L739.485 143.009V208.583L685.943 181.813V116.239Z" fill="#2D7CC5"/>
<path d="M851.969 146.447L798.428 119.677V185.251L851.969 212.021V146.447Z" fill="#2D7CC5"/>
<path d="M744.887 146.447L798.428 119.677V185.251L744.887 212.021V146.447Z" fill="#CC2255"/>
<path d="M798.428 185.251L851.969 212.021L798.428 238.792L744.887 212.021L798.428 185.251Z" fill="#663366"/>
<path d="M744.887 146.447L798.428 173.218L851.969 146.447L798.428 119.677L744.887 146.447Z" fill="#3795EB"/>
<path d="M851.969 146.447L798.428 173.218V238.792L851.969 212.021V146.447Z" fill="#1B64A7"/>
<path d="M744.887 146.447L798.428 173.218V238.792L744.887 212.021V146.447Z" fill="#2D7CC5"/>
<path d="M734.083 146.447L680.541 119.677V185.251L734.083 212.021V146.447Z" fill="#2D7CC5"/>
<path d="M627 146.447L680.541 119.677V185.251L627 212.021V146.447Z" fill="#CC2255"/>
<path d="M680.541 185.251L734.083 212.021L680.541 238.792L627 212.021L680.541 185.251Z" fill="#663366"/>
<path d="M627 146.447L680.541 173.218L734.083 146.447L680.541 119.677L627 146.447Z" fill="#3795EB"/>
<path d="M734.083 146.447L680.541 173.218V238.792L734.083 212.021V146.447Z" fill="#1B64A7"/>
<path d="M627 146.447L680.541 173.218V238.792L627 212.021V146.447Z" fill="#2D7CC5"/>
<path d="M793.026 176.656L739.485 149.885V215.46L793.026 242.23V176.656Z" fill="#2D7CC5"/>
<path d="M685.943 176.656L739.485 149.885V215.46L685.943 242.23V176.656Z" fill="#CC2255"/>
<path d="M739.485 215.459L793.026 242.23L739.485 269L685.943 242.23L739.485 215.459Z" fill="#663366"/>
<path d="M685.943 176.656L739.485 203.426L793.026 176.656L739.485 149.885L685.943 176.656Z" fill="#3795EB"/>
<path d="M793.026 176.656L739.485 203.426V269L793.026 242.23V176.656Z" fill="#1B64A7"/>
<path d="M685.943 176.656L739.485 203.426V269L685.943 242.23V176.656Z" fill="#2D7CC5"/>
<path d="M793.026 44.7702L739.485 18V83.574L793.026 110.344V44.7702Z" fill="#2D7CC5"/>
<path d="M685.943 44.7702L739.485 18V83.574L685.943 110.344V44.7702Z" fill="#CC2255"/>
<path d="M739.485 83.574L793.026 110.344L739.485 137.114L685.943 110.344L739.485 83.574Z" fill="#663366"/>
<path d="M685.943 44.7702L739.485 71.5405L793.026 44.7702L739.485 18L685.943 44.7702Z" fill="#3795EB"/>
<path d="M793.026 44.7703L739.485 71.5405V137.115L793.026 110.344V44.7703Z" fill="#1B64A7"/>
<path d="M685.943 44.7703L739.485 71.5405V137.115L685.943 110.344V44.7703Z" fill="#2D7CC5"/>
<path d="M851.969 74.9786L798.428 48.2084V113.782L851.969 140.553V74.9786Z" fill="#2D7CC5"/>
<path d="M744.887 74.9786L798.428 48.2084V113.782L744.887 140.553V74.9786Z" fill="#CC2255"/>
<path d="M798.428 113.782L851.969 140.553L798.428 167.323L744.887 140.553L798.428 113.782Z" fill="#663366"/>
<path d="M744.887 74.9786L798.428 101.749L851.969 74.9786L798.428 48.2084L744.887 74.9786Z" fill="#3795EB"/>
<path d="M851.969 74.9786L798.428 101.749V167.323L851.969 140.553V74.9786Z" fill="#1B64A7"/>
<path d="M744.887 74.9786L798.428 101.749V167.323L744.887 140.553V74.9786Z" fill="#2D7CC5"/>
<path d="M734.083 74.9786L680.541 48.2084V113.782L734.083 140.553V74.9786Z" fill="#2D7CC5"/>
<path d="M627 74.9786L680.541 48.2084V113.782L627 140.553V74.9786Z" fill="#CC2255"/>
<path d="M680.541 113.782L734.083 140.553L680.541 167.323L627 140.553L680.541 113.782Z" fill="#663366"/>
<path d="M627 74.9786L680.541 101.749L734.083 74.9786L680.541 48.2084L627 74.9786Z" fill="#3795EB"/>
<path d="M734.083 74.9786L680.541 101.749V167.323L734.083 140.553V74.9786Z" fill="#1B64A7"/>
<path d="M627 74.9786L680.541 101.749V167.323L627 140.553V74.9786Z" fill="#2D7CC5"/>
<path d="M793.026 105.187L739.485 78.4169V143.991L793.026 170.761V105.187Z" fill="#2D7CC5"/>
<path d="M685.943 105.187L739.485 78.4169V143.991L685.943 170.761V105.187Z" fill="#CC2255"/>
<path d="M739.485 143.991L793.026 170.761L739.485 197.531L685.943 170.761L739.485 143.991Z" fill="#663366"/>
<path d="M685.943 105.187L739.485 131.957L793.026 105.187L739.485 78.4169L685.943 105.187Z" fill="#3795EB"/>
<path d="M793.026 105.187L739.485 131.957V197.531L793.026 170.761V105.187Z" fill="#1B64A7"/>
<path d="M685.943 105.187L739.485 131.957V197.531L685.943 170.761V105.187Z" fill="#2D7CC5"/>
<path d="M56.4 217.2C51.0667 215.133 49.4667 211.467 51.6 206.2L99.2 89C101.2 84.6 104.333 82.4 108.6 82.4H109C113.333 82.6 116.267 84.8 117.8 89L166.2 206.2C168.333 211.467 166.8 215.133 161.6 217.2C156.333 219.267 152.667 217.733 150.6 212.6L139.8 186.4H77.5L67.2 212.6C65.1333 217.8 61.5333 219.333 56.4 217.2ZM84.1 169.6H132.9L108 109L84.1 169.6ZM196.003 218C190.536 218 187.803 215.2 187.803 209.6C187.803 208.667 188.07 207.633 188.603 206.5C189.136 205.367 189.936 204 191.003 202.4L271.403 97.2V99.2H218.003C213.736 99.2 210.403 99.8333 208.003 101.1C205.603 102.367 203.936 104.467 203.003 107.4C202.403 109.867 201.47 111.8 200.203 113.2C198.936 114.533 196.936 115.2 194.203 115.2C191.403 115.2 189.203 114.433 187.603 112.9C186.07 111.367 185.536 109.2 186.003 106.4C187.603 98.6667 191.07 92.7333 196.403 88.6C201.803 84.4667 209.003 82.4 218.003 82.4H284.803C290.403 82.4 293.203 85.2 293.203 90.8C293.203 91.8667 292.97 93 292.503 94.2C292.036 95.4 291.203 96.8 290.003 98.4L210.603 202V201.2H269.803C274.336 201.2 277.803 200.6 280.203 199.4C282.603 198.133 284.203 196 285.003 193C285.736 190.467 286.736 188.533 288.003 187.2C289.336 185.867 291.336 185.2 294.003 185.2C296.803 185.2 298.97 185.967 300.503 187.5C302.036 189.033 302.603 191.2 302.203 194C298.936 210 288.136 218 269.803 218H196.003ZM377.694 218C362.427 218 351.127 214.367 343.794 207.1C336.527 199.767 332.894 188.467 332.894 173.2V90.8C332.894 88 333.594 85.9 334.994 84.5C336.394 83.1 338.494 82.4 341.294 82.4C344.094 82.4 346.194 83.1 347.594 84.5C348.994 85.9 349.694 88 349.694 90.8V173.2C349.694 180.333 350.527 185.933 352.194 190C353.927 194.067 356.827 196.967 360.894 198.7C364.96 200.367 370.56 201.2 377.694 201.2H401.694C408.827 201.2 414.427 200.367 418.494 198.7C422.56 196.967 425.427 194.067 427.094 190C428.827 185.933 429.694 180.333 429.694 173.2V90.8C429.694 88 430.394 85.9 431.794 84.5C433.194 83.1 435.294 82.4 438.094 82.4C440.894 82.4 442.994 83.1 444.394 84.5C445.794 85.9 446.494 88 446.494 90.8V173.2C446.494 188.467 442.86 199.767 435.594 207.1C428.327 214.367 417.027 218 401.694 218H377.694ZM495.419 218C489.819 218 487.019 215.2 487.019 209.6V90.8C487.019 85.2 489.819 82.4 495.419 82.4C501.019 82.4 503.819 85.2 503.819 90.8V201.2H559.219C564.819 201.2 567.619 204 567.619 209.6C567.619 215.2 564.819 218 559.219 218H495.419Z" fill="#1B64A7"/>
</svg>
