<svg width="1978" height="288" viewBox="0 0 1978 288" fill="none" xmlns="http://www.w3.org/2000/svg">
<path d="M397.2 225C391.6 225 388.8 222.2 388.8 216.6V97.8C388.8 92.2 391.6 89.4 397.2 89.4H469C474.6 89.4 477.4 92.2 477.4 97.8C477.4 103.4 474.6 106.2 469 106.2H405.6V148.2H445.4C451 148.2 453.8 151 453.8 156.6C453.8 162.2 451 165 445.4 165H405.6V208.2H469C474.6 208.2 477.4 211 477.4 216.6C477.4 222.2 474.6 225 469 225H397.2ZM517.708 225C512.108 225 509.308 222.2 509.308 216.6V132C509.308 126.4 512.108 123.6 517.708 123.6C523.308 123.6 526.108 126.4 526.108 132V135.3C533.174 127.5 543.574 123.6 557.308 123.6H562.908C576.241 123.6 586.108 126.8 592.508 133.2C598.908 139.6 602.108 149.467 602.108 162.8V216.6C602.108 222.2 599.308 225 593.708 225C588.108 225 585.308 222.2 585.308 216.6V162.8C585.308 154.067 583.708 148.167 580.508 145.1C577.374 141.967 571.508 140.4 562.908 140.4H557.308C549.308 140.4 542.341 141.333 536.408 143.2C530.474 145 527.041 147.867 526.108 151.8V216.6C526.108 222.2 523.308 225 517.708 225ZM684.53 225C671.33 225 661.596 221.867 655.33 215.6C649.063 209.333 645.93 199.667 645.93 186.6V140.4H636.13C630.53 140.4 627.73 137.6 627.73 132C627.73 126.4 630.53 123.6 636.13 123.6H645.93V109C645.93 103.4 648.73 100.6 654.33 100.6C659.93 100.6 662.73 103.4 662.73 109V123.6H685.73C691.33 123.6 694.13 126.4 694.13 132C694.13 137.6 691.33 140.4 685.73 140.4H662.73V186.6C662.73 195.067 664.263 200.8 667.33 203.8C670.396 206.733 676.13 208.2 684.53 208.2C687.13 208.2 689.163 208.867 690.63 210.2C692.163 211.533 692.93 213.667 692.93 216.6C692.93 222.2 690.13 225 684.53 225ZM729.511 181.2V186C729.511 194.6 731.078 200.467 734.211 203.6C737.344 206.667 743.244 208.2 751.911 208.2H768.311C775.111 208.2 780.144 207.567 783.411 206.3C786.678 205.033 788.844 202.8 789.911 199.6C790.644 197.067 791.644 195.133 792.911 193.8C794.244 192.467 796.244 191.8 798.911 191.8C801.711 191.8 803.844 192.533 805.311 194C806.778 195.467 807.244 197.6 806.711 200.4C805.244 208.667 801.311 214.833 794.911 218.9C788.511 222.967 779.644 225 768.311 225H751.911C738.644 225 728.778 221.8 722.311 215.4C715.911 209 712.711 199.2 712.711 186V162.8C712.711 149.267 715.911 139.333 722.311 133C728.778 126.6 738.644 123.467 751.911 123.6H768.311C781.644 123.6 791.511 126.8 797.911 133.2C804.311 139.533 807.511 149.4 807.511 162.8V172.8C807.511 178.4 804.711 181.2 799.111 181.2H729.511ZM751.911 140.4C743.244 140.267 737.344 141.767 734.211 144.9C731.078 148.033 729.511 154 729.511 162.8V164.4H790.711V162.8C790.711 154.067 789.144 148.167 786.011 145.1C782.944 141.967 777.044 140.4 768.311 140.4H751.911ZM852.669 225C847.069 225 844.269 222.2 844.269 216.6V132C844.269 126.4 847.069 123.6 852.669 123.6C858.269 123.6 861.069 126.4 861.069 132V139.8C865.002 134.467 870.002 130.433 876.069 127.7C882.202 124.967 889.202 123.6 897.069 123.6C902.669 123.6 905.469 126.4 905.469 132C905.469 137.6 902.669 140.4 897.069 140.4C885.535 140.4 876.735 142.533 870.669 146.8C864.602 151.067 861.402 156.7 861.069 163.7V216.6C861.069 222.2 858.269 225 852.669 225ZM938.02 265C932.42 265 929.62 262.2 929.62 256.6V132C929.62 126.4 932.42 123.6 938.02 123.6C943.62 123.6 946.42 126.4 946.42 132V134.5C950.02 130.9 954.454 128.2 959.72 126.4C965.054 124.533 971.02 123.6 977.62 123.6H985.22C998.554 123.6 1008.42 126.8 1014.82 133.2C1021.22 139.6 1024.42 149.467 1024.42 162.8V185.8C1024.42 199.067 1021.22 208.933 1014.82 215.4C1008.42 221.8 998.554 225 985.22 225H946.42V256.6C946.42 262.2 943.62 265 938.02 265ZM946.42 208.2H985.22C993.954 208.2 999.854 206.633 1002.92 203.5C1006.05 200.367 1007.62 194.467 1007.62 185.8V162.8C1007.62 154.067 1006.05 148.167 1002.92 145.1C999.854 141.967 993.954 140.4 985.22 140.4H977.62C969.287 140.4 962.087 141.4 956.02 143.4C949.954 145.4 946.754 148.567 946.42 152.9V208.2ZM1069.66 225C1064.06 225 1061.26 222.2 1061.26 216.6V132C1061.26 126.4 1064.06 123.6 1069.66 123.6C1075.26 123.6 1078.06 126.4 1078.06 132V139.8C1081.99 134.467 1086.99 130.433 1093.06 127.7C1099.19 124.967 1106.19 123.6 1114.06 123.6C1119.66 123.6 1122.46 126.4 1122.46 132C1122.46 137.6 1119.66 140.4 1114.06 140.4C1102.53 140.4 1093.73 142.533 1087.66 146.8C1081.59 151.067 1078.39 156.7 1078.06 163.7V216.6C1078.06 222.2 1075.26 225 1069.66 225ZM1152.21 107.2C1145.88 107.2 1142.71 104 1142.71 97.6V91.7C1142.71 85.4333 1145.88 82.3 1152.21 82.3H1158.01C1164.08 82.3 1167.11 85.4333 1167.11 91.7V97.6C1167.11 104 1164.08 107.2 1158.01 107.2H1152.21ZM1155.01 225C1149.41 225 1146.61 222.2 1146.61 216.6V132C1146.61 126.4 1149.41 123.6 1155.01 123.6C1160.61 123.6 1163.41 126.4 1163.41 132V216.6C1163.41 222.2 1160.61 225 1155.01 225ZM1228.81 225C1220.34 225 1213.64 223.267 1208.71 219.8C1203.78 216.267 1200.61 211 1199.21 204C1198.74 201.2 1199.28 199 1200.81 197.4C1202.41 195.8 1204.61 195 1207.41 195C1210.14 195 1212.11 195.7 1213.31 197.1C1214.58 198.433 1215.61 200.467 1216.41 203.2C1217.21 205.2 1218.54 206.533 1220.41 207.2C1222.34 207.867 1225.14 208.2 1228.81 208.2H1261.61C1266.81 208.2 1270.31 207.367 1272.11 205.7C1273.91 203.967 1274.81 200.4 1274.81 195C1274.81 189.667 1273.91 186.133 1272.11 184.4C1270.31 182.667 1266.81 181.8 1261.61 181.8H1229.41C1219.81 181.8 1212.58 179.367 1207.71 174.5C1202.84 169.633 1200.41 162.4 1200.41 152.8C1200.41 143 1202.78 135.7 1207.51 130.9C1212.31 126.033 1219.61 123.6 1229.41 123.6H1260.61C1276.28 123.6 1285.54 130.2 1288.41 143.4C1288.94 146.2 1288.41 148.367 1286.81 149.9C1285.21 151.433 1283.01 152.2 1280.21 152.2C1277.61 152.2 1275.68 151.533 1274.41 150.2C1273.14 148.8 1272.14 146.867 1271.41 144.4C1270.61 142.8 1269.38 141.733 1267.71 141.2C1266.11 140.667 1263.74 140.4 1260.61 140.4H1229.41C1224.34 140.4 1221.04 141.167 1219.51 142.7C1217.98 144.233 1217.21 147.6 1217.21 152.8C1217.21 157.6 1218.01 160.833 1219.61 162.5C1221.28 164.167 1224.54 165 1229.41 165H1261.61C1271.61 165 1279.11 167.5 1284.11 172.5C1289.11 177.5 1291.61 185 1291.61 195C1291.61 205.067 1289.11 212.6 1284.11 217.6C1279.11 222.533 1271.61 225 1261.61 225H1228.81ZM1339.28 181.2V186C1339.28 194.6 1340.84 200.467 1343.98 203.6C1347.11 206.667 1353.01 208.2 1361.68 208.2H1378.08C1384.88 208.2 1389.91 207.567 1393.18 206.3C1396.44 205.033 1398.61 202.8 1399.68 199.6C1400.41 197.067 1401.41 195.133 1402.68 193.8C1404.01 192.467 1406.01 191.8 1408.68 191.8C1411.48 191.8 1413.61 192.533 1415.08 194C1416.54 195.467 1417.01 197.6 1416.48 200.4C1415.01 208.667 1411.08 214.833 1404.68 218.9C1398.28 222.967 1389.41 225 1378.08 225H1361.68C1348.41 225 1338.54 221.8 1332.08 215.4C1325.68 209 1322.48 199.2 1322.48 186V162.8C1322.48 149.267 1325.68 139.333 1332.08 133C1338.54 126.6 1348.41 123.467 1361.68 123.6H1378.08C1391.41 123.6 1401.28 126.8 1407.68 133.2C1414.08 139.533 1417.28 149.4 1417.28 162.8V172.8C1417.28 178.4 1414.48 181.2 1408.88 181.2H1339.28ZM1361.68 140.4C1353.01 140.267 1347.11 141.767 1343.98 144.9C1340.84 148.033 1339.28 154 1339.28 162.8V164.4H1400.48V162.8C1400.48 154.067 1398.91 148.167 1395.78 145.1C1392.71 141.967 1386.81 140.4 1378.08 140.4H1361.68ZM1462.43 225C1456.83 225 1454.03 222.2 1454.03 216.6V97.8C1454.03 92.2 1456.83 89.4 1462.43 89.4C1468.03 89.4 1470.83 92.2 1470.83 97.8V208.2H1526.23C1531.83 208.2 1534.63 211 1534.63 216.6C1534.63 222.2 1531.83 225 1526.23 225H1462.43ZM1596.64 225C1583.37 225 1573.5 221.8 1567.04 215.4C1560.64 209 1557.44 199.2 1557.44 186V162.8C1557.44 149.4 1560.64 139.533 1567.04 133.2C1573.5 126.8 1583.37 123.6 1596.64 123.6H1613.04C1626.37 123.6 1636.24 126.8 1642.64 133.2C1649.04 139.6 1652.24 149.467 1652.24 162.8V185.8C1652.24 199.067 1649.04 208.933 1642.64 215.4C1636.24 221.8 1626.37 225 1613.04 225H1596.64ZM1574.24 186C1574.24 194.6 1575.8 200.467 1578.94 203.6C1582.07 206.667 1587.97 208.2 1596.64 208.2H1613.04C1621.77 208.2 1627.67 206.633 1630.74 203.5C1633.87 200.367 1635.44 194.467 1635.44 185.8V162.8C1635.44 154.067 1633.87 148.167 1630.74 145.1C1627.67 141.967 1621.77 140.4 1613.04 140.4H1596.64C1590.84 140.4 1586.3 141.067 1583.04 142.4C1579.84 143.667 1577.57 145.933 1576.24 149.2C1574.9 152.4 1574.24 156.933 1574.24 162.8V186ZM1713 265C1704.93 265 1698.56 263.367 1693.9 260.1C1689.3 256.833 1686.33 251.867 1685 245.2C1684.53 242.4 1685.03 240.2 1686.5 238.6C1687.96 237 1690.2 236.2 1693.2 236.2C1695.73 236.2 1697.56 236.867 1698.7 238.2C1699.9 239.6 1700.93 241.667 1701.8 244.4C1702.6 245.867 1703.83 246.867 1705.5 247.4C1707.23 247.933 1709.73 248.2 1713 248.2H1750.2C1755.2 248.2 1758.43 247.4 1759.9 245.8C1761.43 244.267 1762.2 241.067 1762.2 236.2V212.9C1758.6 216.833 1754.13 219.833 1748.8 221.9C1743.53 223.967 1737.6 225 1731 225H1723.4C1710.13 225 1700.26 221.8 1693.8 215.4C1687.4 209 1684.2 199.2 1684.2 186V162.8C1684.2 149.4 1687.36 139.533 1693.7 133.2C1700.1 126.8 1710 123.6 1723.4 123.6H1739.8C1744.53 123.6 1748.76 124.3 1752.5 125.7C1756.3 127.1 1759.53 129.233 1762.2 132.1V132C1762.2 126.4 1765 123.6 1770.6 123.6C1776.2 123.6 1779 126.4 1779 132V236.2C1779 246 1776.63 253.233 1771.9 257.9C1767.23 262.633 1760 265 1750.2 265H1713ZM1723.4 208.2H1731C1739.8 208.2 1747.2 207.1 1753.2 204.9C1759.2 202.7 1762.2 199.2 1762.2 194.4V154.4C1762.2 149 1760.23 145.333 1756.3 143.4C1752.43 141.4 1746.93 140.4 1739.8 140.4H1723.4C1714.8 140.4 1708.9 141.933 1705.7 145C1702.56 148.067 1701 154 1701 162.8V186C1701 194.467 1702.56 200.3 1705.7 203.5C1708.83 206.633 1714.73 208.2 1723.4 208.2ZM1853.08 225C1839.82 225 1829.95 221.8 1823.48 215.4C1817.08 209 1813.88 199.2 1813.88 186V162.8C1813.88 149.4 1817.08 139.533 1823.48 133.2C1829.95 126.8 1839.82 123.6 1853.08 123.6H1869.48C1882.82 123.6 1892.68 126.8 1899.08 133.2C1905.48 139.6 1908.68 149.467 1908.68 162.8V185.8C1908.68 199.067 1905.48 208.933 1899.08 215.4C1892.68 221.8 1882.82 225 1869.48 225H1853.08ZM1830.68 186C1830.68 194.6 1832.25 200.467 1835.38 203.6C1838.52 206.667 1844.42 208.2 1853.08 208.2H1869.48C1878.22 208.2 1884.12 206.633 1887.18 203.5C1890.32 200.367 1891.88 194.467 1891.88 185.8V162.8C1891.88 154.067 1890.32 148.167 1887.18 145.1C1884.12 141.967 1878.22 140.4 1869.48 140.4H1853.08C1847.28 140.4 1842.75 141.067 1839.48 142.4C1836.28 143.667 1834.02 145.933 1832.68 149.2C1831.35 152.4 1830.68 156.933 1830.68 162.8V186Z" fill="#8C2DC6"/>
<path d="M188.338 32L44 195.674L294 162.183L188.338 32Z" fill="#EE6622"/>
<path d="M294 162.183L44 195.674L227.014 287.182L294 162.183Z" fill="#663366"/>
<path d="M188.338 32L294 162.183L227.014 287.181L188.338 32Z" fill="#663366"/>
<path d="M188.338 32L227.014 287.181L44 195.674L188.338 32Z" fill="#8C2DC6"/>
</svg>
