<svg width="185" height="20" fill="none" xmlns="http://www.w3.org/2000/svg"><path d="M35 8.014V16h-3.488V8.704c0-1.62-1.034-2.522-2.453-2.522-1.39 0-2.483 1.021-2.512 2.312V16H23V3.33h3.31v1.171C27.168 3.601 28.468 3 30.094 3 33.079 3 35 5.042 35 8.014zM37 9.5C37 5.765 39.904 3 44 3c4.066 0 7 2.794 7 6.5S48.096 16 44 16c-4.127.03-7-2.794-7-6.5zm10.332 0c0-1.97-1.315-3.382-3.332-3.382S40.638 7.5 40.638 9.529c0 1.97 1.345 3.412 3.362 3.412 1.956-.03 3.332-1.441 3.332-3.441zM64 3.03L59.502 16h-4.004L51 3h3.57l2.93 9.435L60.46 3H64v.03zM65 9.5C65 5.765 67.697 3 71.5 3 75.275 3 78 5.794 78 9.5S75.303 16 71.5 16c-3.803.03-6.5-2.794-6.5-6.5zm9.622 0c0-1.97-1.22-3.382-3.093-3.382-1.874 0-3.123 1.382-3.123 3.411 0 1.97 1.249 3.412 3.123 3.412 1.816-.03 3.093-1.441 3.093-3.441zM94 9.504c0 3.726-2.691 6.505-6.362 6.505-2.203 0-3.977-1.035-5.017-2.69V20H81V3.266h1.53v2.661C83.538 4.123 85.373 3 87.667 3 91.369 3 94 5.78 94 9.504zm-1.62 0c0-2.956-2.081-5.114-4.895-5.114-2.876 0-4.894 2.099-4.894 5.114 0 3.016 1.988 5.115 4.894 5.115 2.784 0 4.894-2.188 4.894-5.115zM109 3.208v12.525h-1.533v-2.701c-.981 1.84-2.79 2.968-5.12 2.968C98.667 16 96 13.21 96 9.44 96 5.73 98.698 3 102.347 3c2.299 0 4.139 1.098 5.12 2.909v-2.73H109v.029zm-1.594 6.262c0-2.997-1.993-5.134-4.906-5.134-2.79 0-4.906 2.226-4.906 5.134 0 2.968 2.055 5.135 4.906 5.135 2.882 0 4.906-2.137 4.906-5.135zM123 3l-6.898 17h-1.537l1.798-4.317h-.348L111 3h1.594l4.319 11.273L121.377 3H123zM145 8.158V16h-1.593V8.43c0-2.384-1.444-4.012-3.76-3.982-2.286 0-3.819 1.81-3.85 3.378V16h-1.624V8.43c0-2.384-1.413-4.012-3.729-3.982-2.286 0-3.82 1.78-3.85 3.378V16H125V3.271h1.534v2.082C127.256 4.086 128.79 3 130.865 3c2.286 0 3.819 1.056 4.511 2.865.602-1.447 2.226-2.865 4.632-2.865C143.136 3 145 5.142 145 8.158zM154.19 14.614c2.219 0 3.62-.913 4.321-2.712l1.198.738c-.877 2.092-2.658 3.36-5.519 3.36-3.62 0-6.19-2.771-6.19-6.485C148 5.859 150.657 3 154.102 3 157.635 3 160 5.771 160 9.22c0 .265 0 .53-.029.707h-10.394c.146 2.8 2.014 4.688 4.613 4.688zm4.292-5.866c-.175-2.682-1.839-4.45-4.35-4.45-2.511-.001-4.292 1.768-4.555 4.45h8.905zM175 8.26V16h-1.728V8.533c0-2.6-1.568-4.142-4.224-4.112-2.56 0-4.32 1.754-4.352 3.598V16H163V3.242h1.632V5.39c.832-1.3 2.528-2.389 4.832-2.389C172.952 2.97 175 5.026 175 8.26zM178.595 11.864V4.65H176V3.23h1.543c.822 0 1.183-.362 1.183-1.117V0h1.675v3.26h4.336v1.42h-4.369v7.063c0 1.812 1.019 2.868 2.957 2.868H185V16h-1.938c-2.924 0-4.467-1.57-4.467-4.136z" fill="#1500A1"/><path d="M16.667 9H.333C.152 9 0 9.123 0 9.32v2.36c0 .172.152.32.333.32h16.334a.331.331 0 00.333-.32V9.32c0-.197-.152-.32-.333-.32z" fill="url(#prefix__paint0_linear_84_331)"/><path d="M.333 8h16.334c.181 0 .333-.171.333-.371V5.37c0-.2-.152-.371-.333-.371H.333C.152 5 0 5.171 0 5.371V7.63c0 .2.152.371.333.371z" fill="url(#prefix__paint1_linear_84_331)"/><path d="M15.667 18H1.303C.576 18 0 17.321 0 16.464V13.43c0-.25.152-.429.364-.429h16.272c.212 0 .364.178.364.429v3.035c0 .822-.606 1.536-1.333 1.536z" fill="url(#prefix__paint2_linear_84_331)"/><path d="M16.663 3H.364C.152 3 0 2.875 0 2.7v-.625C0 1.475.577 1 1.305 1h14.387c.728 0 1.305.475 1.305 1.075V2.7c.03.175-.152.3-.334.3z" fill="url(#prefix__paint3_linear_84_331)"/><defs><linearGradient id="prefix__paint0_linear_84_331" x1="8.551" y1="14.865" x2="8.455" y2="3.617" gradientUnits="userSpaceOnUse"><stop offset=".041" stop-color="#1500A1"/><stop offset=".785" stop-color="#8854FF"/><stop offset=".97" stop-color="#00DFCC"/></linearGradient><linearGradient id="prefix__paint1_linear_84_331" x1="8.599" y1="15.9" x2="8.469" y2="2.832" gradientUnits="userSpaceOnUse"><stop offset=".041" stop-color="#1500A1"/><stop offset=".785" stop-color="#8854FF"/><stop offset=".97" stop-color="#00DFCC"/></linearGradient><linearGradient id="prefix__paint2_linear_84_331" x1="8.502" y1="15.841" x2="8.3" y2="-.503" gradientUnits="userSpaceOnUse"><stop offset=".041" stop-color="#1500A1"/><stop offset=".785" stop-color="#8854FF"/><stop offset=".97" stop-color="#00DFCC"/></linearGradient><linearGradient id="prefix__paint3_linear_84_331" x1="8.649" y1="13.498" x2="8.55" y2="2.052" gradientUnits="userSpaceOnUse"><stop offset=".041" stop-color="#1500A1"/><stop offset=".785" stop-color="#8854FF"/><stop offset=".97" stop-color="#00DFCC"/></linearGradient></defs></svg>